<mxfile host="Electron" agent="Mozilla/5.0 (X11; Linux x86_64) AppleWebKit/537.36 (KHTML, like Gecko) draw.io/24.5.3 Chrome/124.0.6367.207 Electron/30.0.6 Safari/537.36" modified="2024-07-27T10:20:37.884Z" version="24.5.3" etag="DZYrym4IH3aqeGqHRMhF" type="device">
  <diagram name="Page-1" id="LInRqrQsV4V-wmSq09pM">
    <mxGraphModel dx="2074" dy="1195" grid="1" gridSize="10" guides="1" tooltips="1" connect="1" arrows="1" fold="1" page="1" pageScale="1" pageWidth="850" pageHeight="1100" math="0" shadow="0">
      <root>
        <mxCell id="0" />
        <mxCell id="1" parent="0" />
        <mxCell id="Vv3zLhDwNzCCgq5lBk2P-1" value="" style="rounded=0;whiteSpace=wrap;html=1;" parent="1" vertex="1">
          <mxGeometry x="560" y="200" width="160" height="520" as="geometry" />
        </mxCell>
        <mxCell id="Vv3zLhDwNzCCgq5lBk2P-2" value="" style="endArrow=classic;html=1;rounded=0;entryX=0;entryY=1;entryDx=0;entryDy=0;" parent="1" edge="1">
          <mxGeometry width="50" height="50" relative="1" as="geometry">
            <mxPoint x="520" y="718.82" as="sourcePoint" />
            <mxPoint x="560" y="718.82" as="targetPoint" />
          </mxGeometry>
        </mxCell>
        <mxCell id="Vv3zLhDwNzCCgq5lBk2P-3" value="&lt;pre&gt;0x0&lt;/pre&gt;" style="edgeLabel;html=1;align=center;verticalAlign=middle;resizable=0;points=[];fontFamily=Comic Sans MS;labelBackgroundColor=none;" parent="Vv3zLhDwNzCCgq5lBk2P-2" vertex="1" connectable="0">
          <mxGeometry x="-0.5286" y="-1" relative="1" as="geometry">
            <mxPoint y="-11" as="offset" />
          </mxGeometry>
        </mxCell>
        <mxCell id="Vv3zLhDwNzCCgq5lBk2P-7" value="" style="endArrow=classic;html=1;rounded=0;entryX=0;entryY=1;entryDx=0;entryDy=0;" parent="1" edge="1">
          <mxGeometry width="50" height="50" relative="1" as="geometry">
            <mxPoint x="520" y="638.82" as="sourcePoint" />
            <mxPoint x="560" y="638.82" as="targetPoint" />
          </mxGeometry>
        </mxCell>
        <mxCell id="Vv3zLhDwNzCCgq5lBk2P-8" value="&lt;pre&gt;Kernbase&lt;br&gt;0x80000000&lt;/pre&gt;" style="edgeLabel;html=1;align=center;verticalAlign=middle;resizable=0;points=[];fontFamily=Comic Sans MS;labelBackgroundColor=none;" parent="Vv3zLhDwNzCCgq5lBk2P-7" vertex="1" connectable="0">
          <mxGeometry x="-0.5286" y="-1" relative="1" as="geometry">
            <mxPoint x="-10" y="-15" as="offset" />
          </mxGeometry>
        </mxCell>
        <mxCell id="Vv3zLhDwNzCCgq5lBk2P-9" value="" style="rounded=0;whiteSpace=wrap;html=1;" parent="1" vertex="1">
          <mxGeometry x="200" y="200" width="160" height="520" as="geometry" />
        </mxCell>
        <mxCell id="Vv3zLhDwNzCCgq5lBk2P-10" value="" style="endArrow=classic;html=1;rounded=0;entryX=0;entryY=1;entryDx=0;entryDy=0;" parent="1" target="Vv3zLhDwNzCCgq5lBk2P-9" edge="1">
          <mxGeometry width="50" height="50" relative="1" as="geometry">
            <mxPoint x="160" y="719.66" as="sourcePoint" />
            <mxPoint x="180" y="719.66" as="targetPoint" />
          </mxGeometry>
        </mxCell>
        <mxCell id="Vv3zLhDwNzCCgq5lBk2P-11" value="&lt;pre&gt;0x0&lt;/pre&gt;" style="edgeLabel;html=1;align=center;verticalAlign=middle;resizable=0;points=[];fontFamily=Comic Sans MS;labelBackgroundColor=none;" parent="Vv3zLhDwNzCCgq5lBk2P-10" vertex="1" connectable="0">
          <mxGeometry x="-0.5286" y="-1" relative="1" as="geometry">
            <mxPoint y="-11" as="offset" />
          </mxGeometry>
        </mxCell>
        <mxCell id="Vv3zLhDwNzCCgq5lBk2P-15" value="&lt;div&gt;Virtual Address Space&lt;/div&gt;&lt;div&gt;Process 1&lt;br&gt;&lt;/div&gt;" style="text;html=1;align=center;verticalAlign=middle;resizable=0;points=[];autosize=1;strokeColor=none;fillColor=none;" parent="1" vertex="1">
          <mxGeometry x="210" y="165" width="140" height="40" as="geometry" />
        </mxCell>
        <mxCell id="Vv3zLhDwNzCCgq5lBk2P-16" value="Physical Memory" style="text;html=1;align=center;verticalAlign=middle;resizable=0;points=[];autosize=1;strokeColor=none;fillColor=none;" parent="1" vertex="1">
          <mxGeometry x="580" y="170" width="120" height="30" as="geometry" />
        </mxCell>
        <mxCell id="Vv3zLhDwNzCCgq5lBk2P-17" value="User text and data" style="rounded=0;whiteSpace=wrap;html=1;" parent="1" vertex="1">
          <mxGeometry x="200" y="680" width="160" height="40" as="geometry" />
        </mxCell>
        <mxCell id="Vv3zLhDwNzCCgq5lBk2P-18" value="User Stack" style="rounded=0;whiteSpace=wrap;html=1;" parent="1" vertex="1">
          <mxGeometry x="200" y="661.18" width="160" height="18.82" as="geometry" />
        </mxCell>
        <mxCell id="Vv3zLhDwNzCCgq5lBk2P-19" value="Allocated Heap Space" style="rounded=0;whiteSpace=wrap;html=1;" parent="1" vertex="1">
          <mxGeometry x="200" y="620" width="160" height="41.18" as="geometry" />
        </mxCell>
        <mxCell id="Vv3zLhDwNzCCgq5lBk2P-20" value="" style="endArrow=classic;html=1;rounded=0;entryX=0;entryY=0;entryDx=0;entryDy=0;" parent="1" target="Vv3zLhDwNzCCgq5lBk2P-19" edge="1">
          <mxGeometry width="50" height="50" relative="1" as="geometry">
            <mxPoint x="160" y="620" as="sourcePoint" />
            <mxPoint x="200" y="520.34" as="targetPoint" />
          </mxGeometry>
        </mxCell>
        <mxCell id="Vv3zLhDwNzCCgq5lBk2P-21" value="&lt;pre&gt;sbrk(0)&lt;/pre&gt;" style="edgeLabel;html=1;align=center;verticalAlign=middle;resizable=0;points=[];fontFamily=Comic Sans MS;labelBackgroundColor=none;" parent="Vv3zLhDwNzCCgq5lBk2P-20" vertex="1" connectable="0">
          <mxGeometry x="-0.5286" y="-1" relative="1" as="geometry">
            <mxPoint y="-11" as="offset" />
          </mxGeometry>
        </mxCell>
        <mxCell id="Vv3zLhDwNzCCgq5lBk2P-22" value="Free memory" style="rounded=0;whiteSpace=wrap;html=1;fillColor=#f5f5f5;fontColor=#333333;strokeColor=#666666;" parent="1" vertex="1">
          <mxGeometry x="200" y="200" width="160" height="420" as="geometry" />
        </mxCell>
        <mxCell id="Vv3zLhDwNzCCgq5lBk2P-23" value="" style="endArrow=classic;html=1;rounded=0;entryX=0;entryY=0;entryDx=0;entryDy=0;" parent="1" target="Vv3zLhDwNzCCgq5lBk2P-22" edge="1">
          <mxGeometry width="50" height="50" relative="1" as="geometry">
            <mxPoint x="160" y="200" as="sourcePoint" />
            <mxPoint x="200" y="200" as="targetPoint" />
          </mxGeometry>
        </mxCell>
        <mxCell id="Vv3zLhDwNzCCgq5lBk2P-24" value="&lt;pre&gt;MAXVA&lt;/pre&gt;" style="edgeLabel;html=1;align=center;verticalAlign=middle;resizable=0;points=[];fontFamily=Comic Sans MS;labelBackgroundColor=none;" parent="Vv3zLhDwNzCCgq5lBk2P-23" vertex="1" connectable="0">
          <mxGeometry x="-0.5286" y="-1" relative="1" as="geometry">
            <mxPoint y="-11" as="offset" />
          </mxGeometry>
        </mxCell>
        <mxCell id="Vv3zLhDwNzCCgq5lBk2P-25" value="MMIO" style="rounded=0;whiteSpace=wrap;html=1;" parent="1" vertex="1">
          <mxGeometry x="560" y="638.82" width="160" height="80" as="geometry" />
        </mxCell>
        <mxCell id="Vv3zLhDwNzCCgq5lBk2P-26" value="Kernel data and text" style="rounded=0;whiteSpace=wrap;html=1;" parent="1" vertex="1">
          <mxGeometry x="560" y="558.82" width="160" height="80" as="geometry" />
        </mxCell>
        <mxCell id="Vv3zLhDwNzCCgq5lBk2P-28" value="" style="endArrow=classic;html=1;rounded=0;entryX=0;entryY=1;entryDx=0;entryDy=0;" parent="1" edge="1">
          <mxGeometry width="50" height="50" relative="1" as="geometry">
            <mxPoint x="520" y="199.31000000000006" as="sourcePoint" />
            <mxPoint x="560" y="199.31000000000006" as="targetPoint" />
          </mxGeometry>
        </mxCell>
        <mxCell id="Vv3zLhDwNzCCgq5lBk2P-29" value="&lt;pre&gt;PHYSTOP&lt;br&gt;0x88000000&lt;/pre&gt;" style="edgeLabel;html=1;align=center;verticalAlign=middle;resizable=0;points=[];fontFamily=Comic Sans MS;labelBackgroundColor=none;" parent="Vv3zLhDwNzCCgq5lBk2P-28" vertex="1" connectable="0">
          <mxGeometry x="-0.5286" y="-1" relative="1" as="geometry">
            <mxPoint x="-10" y="-15" as="offset" />
          </mxGeometry>
        </mxCell>
        <mxCell id="Vv3zLhDwNzCCgq5lBk2P-30" value="" style="shape=curlyBracket;whiteSpace=wrap;html=1;rounded=1;flipH=1;labelPosition=right;verticalLabelPosition=middle;align=left;verticalAlign=middle;" parent="1" vertex="1">
          <mxGeometry x="720" y="400" width="20" height="158.82" as="geometry" />
        </mxCell>
        <mxCell id="Vv3zLhDwNzCCgq5lBk2P-31" value="User text and data" style="rounded=0;whiteSpace=wrap;html=1;" parent="1" vertex="1">
          <mxGeometry x="560" y="518.8199999999999" width="160" height="40" as="geometry" />
        </mxCell>
        <mxCell id="Vv3zLhDwNzCCgq5lBk2P-32" value="User Stack" style="rounded=0;whiteSpace=wrap;html=1;" parent="1" vertex="1">
          <mxGeometry x="560" y="499.99999999999994" width="160" height="18.82" as="geometry" />
        </mxCell>
        <mxCell id="Vv3zLhDwNzCCgq5lBk2P-33" value="Allocated Heap Space" style="rounded=0;whiteSpace=wrap;html=1;" parent="1" vertex="1">
          <mxGeometry x="560" y="458.82" width="160" height="41.18" as="geometry" />
        </mxCell>
        <mxCell id="Vv3zLhDwNzCCgq5lBk2P-34" value="" style="shape=curlyBracket;whiteSpace=wrap;html=1;rounded=1;flipH=1;labelPosition=right;verticalLabelPosition=middle;align=left;verticalAlign=middle;" parent="1" vertex="1">
          <mxGeometry x="720" y="241.18" width="20" height="158.82" as="geometry" />
        </mxCell>
        <mxCell id="Vv3zLhDwNzCCgq5lBk2P-38" value="Process 1 Memory" style="text;html=1;align=center;verticalAlign=middle;resizable=0;points=[];autosize=1;strokeColor=none;fillColor=none;" parent="1" vertex="1">
          <mxGeometry x="730" y="464.41" width="120" height="30" as="geometry" />
        </mxCell>
        <mxCell id="Vv3zLhDwNzCCgq5lBk2P-39" value="Process 2 Memory" style="text;html=1;align=center;verticalAlign=middle;resizable=0;points=[];autosize=1;strokeColor=none;fillColor=none;" parent="1" vertex="1">
          <mxGeometry x="729" y="304.00000000000006" width="120" height="30" as="geometry" />
        </mxCell>
        <mxCell id="Vv3zLhDwNzCCgq5lBk2P-40" value="" style="endArrow=none;dashed=1;html=1;dashPattern=1 3;strokeWidth=2;rounded=0;exitX=1;exitY=1;exitDx=0;exitDy=0;entryX=0;entryY=0;entryDx=0;entryDy=0;" parent="1" source="Vv3zLhDwNzCCgq5lBk2P-17" target="Vv3zLhDwNzCCgq5lBk2P-26" edge="1">
          <mxGeometry width="50" height="50" relative="1" as="geometry">
            <mxPoint x="425" y="608.8199999999999" as="sourcePoint" />
            <mxPoint x="475" y="558.8199999999999" as="targetPoint" />
          </mxGeometry>
        </mxCell>
        <mxCell id="Vv3zLhDwNzCCgq5lBk2P-42" value="" style="endArrow=none;dashed=1;html=1;dashPattern=1 3;strokeWidth=2;rounded=0;exitX=1;exitY=1;exitDx=0;exitDy=0;entryX=0;entryY=0;entryDx=0;entryDy=0;" parent="1" edge="1">
          <mxGeometry width="50" height="50" relative="1" as="geometry">
            <mxPoint x="360" y="619.8199999999999" as="sourcePoint" />
            <mxPoint x="560" y="458.82" as="targetPoint" />
          </mxGeometry>
        </mxCell>
        <mxCell id="Vv3zLhDwNzCCgq5lBk2P-43" value="User text and data" style="rounded=0;whiteSpace=wrap;html=1;" parent="1" vertex="1">
          <mxGeometry x="560" y="359.99999999999994" width="160" height="40" as="geometry" />
        </mxCell>
        <mxCell id="Vv3zLhDwNzCCgq5lBk2P-44" value="User Stack" style="rounded=0;whiteSpace=wrap;html=1;" parent="1" vertex="1">
          <mxGeometry x="560" y="341.17999999999995" width="160" height="18.82" as="geometry" />
        </mxCell>
        <mxCell id="Vv3zLhDwNzCCgq5lBk2P-45" value="Allocated Heap Space" style="rounded=0;whiteSpace=wrap;html=1;" parent="1" vertex="1">
          <mxGeometry x="560" y="320" width="160" height="21.18" as="geometry" />
        </mxCell>
        <mxCell id="Vv3zLhDwNzCCgq5lBk2P-46" value="" style="rounded=0;whiteSpace=wrap;html=1;fillColor=#f5f5f5;fontColor=#333333;strokeColor=#666666;" parent="1" vertex="1">
          <mxGeometry x="560" y="400" width="160" height="58.82" as="geometry" />
        </mxCell>
        <mxCell id="Vv3zLhDwNzCCgq5lBk2P-47" value="" style="rounded=0;whiteSpace=wrap;html=1;fillColor=#f5f5f5;strokeColor=#666666;fontColor=#333333;" parent="1" vertex="1">
          <mxGeometry x="560" y="240" width="160" height="80" as="geometry" />
        </mxCell>
      </root>
    </mxGraphModel>
  </diagram>
</mxfile>
